<?xml version="1.0" encoding="UTF-8"?>
<svg id="_레이어_2" data-name="레이어 2" xmlns="http://www.w3.org/2000/svg" viewBox="0 0 178.97 154.98">
  <defs>
    <style>
      .cls-1, .cls-2 {
        fill: none;
      }

      .cls-2 {
        stroke: #231815;
        stroke-miterlimit: 10;
        stroke-width: 2px;
      }
    </style>
  </defs>
  <g id="_레이어_1-2" data-name="레이어 1">
    <g>
      <circle class="cls-1" cx="86.42" cy="82.13" r="64.23"/>
      <path class="cls-2" d="M45.15,133.35c.39,4.83-1.97,9.78-5.95,12.53-1.17.81-2.45,1.43-3.73,2.04-3.75,1.81-8.03,3.66-11.93,2.19,6.07,2.55,12.72,3.72,19.29,3.39,1.3-.06,2.6-.19,3.86-.54,3.14-.88,5.74-3.16,7.63-5.81s3.15-5.69,4.4-8.7"/>
      <path class="cls-2" d="M134.06,128.07c3.71.95,7.33,2.53,10.21,5.05s4.99,6.06,5.3,9.88-1.34,7.86-4.54,9.97c.41-3.88-1.44-7.76-4.22-10.5s-6.39-4.48-10.07-5.8c-1.95-.7-3.96-1.29-6.02-1.39"/>
      <path class="cls-2" d="M151.47,80.14c3.63,1.22,7.68,1.19,11.29-.1,1.89-.68,3.65-1.68,5.4-2.67,1.62-.92,3.24-1.84,4.86-2.76,1.87-1.06,3.83-2.22,4.83-4.12-.09,3.28-1.19,6.43-2.3,9.51-.73,2.02-1.5,4.06-2.7,5.84-2.61,3.85-7.34,6.17-11.99,5.88-3.16-.2-6.48-1.47-9.36-.16"/>
      <path class="cls-2" d="M21.38,77.85c-5.73-.84-11.81,1.33-15.72,5.6S.12,93.97,1.46,99.6c.14.58.37,1.23.94,1.43-.11-1.25-.21-2.57.33-3.71.3-.64.79-1.17,1.3-1.65,2.71-2.51,6.43-3.77,10.12-3.98s7.38.53,10.92,1.62"/>
      <path class="cls-2" d="M80.49.79c5.46,4.17,8.51,11.29,7.76,18.12"/>
      <path class="cls-2" d="M104.97,5.28c2.23,1.92,3.31,5.01,3.09,7.94-.22,2.93-1.67,5.71-3.71,7.83"/>
      <path class="cls-2" d="M59.72,10.93c3.33,2.89,5.58,6.99,6.22,11.35"/>
    </g>
  </g>
</svg>