<?xml version="1.0" encoding="UTF-8"?>
<svg id="_레이어_2" data-name="레이어 2" xmlns="http://www.w3.org/2000/svg" viewBox="0 0 128.46 163.38">
  <defs>
    <style>
      .cls-1, .cls-2 {
        fill: none;
      }

      .cls-2 {
        stroke: #231815;
        stroke-miterlimit: 10;
        stroke-width: 2px;
      }
    </style>
  </defs>
  <g id="_레이어_1-2" data-name="레이어 1">
    <g>
      <circle class="cls-1" cx="64.23" cy="82.26" r="64.23"/>
      <path class="cls-2" d="M9.83,80.59c-.25,2.54.09,5.13.99,7.51,2.66,7.07,9.61,11.42,16.12,15.26-8.67,2.4-18.63-.91-24.15-8.01"/>
      <path class="cls-2" d="M110.67,128.64c1.02,4.81.28,9.97-2.04,14.3-1.13,2.11-2.62,4.01-4.09,5.9-2.57,3.29-5.63,6.86-9.8,7.2,2.01-5.75,1.75-12.26-.72-17.83"/>
      <path class="cls-2" d="M33.42,138.76c2.27,2.7,4.55,5.42,6.36,8.45,2.51,4.21,4.07,9.01,4.28,13.9,4.33-4.18,6.39-10.57,5.32-16.49"/>
      <path class="cls-2" d="M55.98.92c6.12,2.59,10.82,11.29,10.07,18.12"/>
      <path class="cls-2" d="M77.61,4.26c3.38,1.15,6.12,5.67,5.88,9.04s-.62,5.75-1.33,7.88"/>
      <path class="cls-2" d="M35.98,12.63c4,1.75,7.12,5.42,7.76,9.78"/>
    </g>
  </g>
</svg>